<?xml version="1.0" encoding="utf-8"?>
<!-- Generator: Adobe Illustrator 16.0.0, SVG Export Plug-In . SVG Version: 6.00 Build 0)  -->
<!DOCTYPE svg PUBLIC "-//W3C//DTD SVG 1.1//EN" "http://www.w3.org/Graphics/SVG/1.1/DTD/svg11.dtd">
<svg xmlns="http://www.w3.org/2000/svg" xmlns:xlink="http://www.w3.org/1999/xlink" version="1.1" width="35" height="50"><svg xmlns:xlink="http://www.w3.org/1999/xlink" version="1.1" width="35" height="50" viewBox="0 0 565 800" x="0" y="0"><svg xmlns:xlink="http://www.w3.org/1999/xlink" version="1.1" id="Ebene_1" x="0" y="0" width="565" height="800" viewBox="0 0 595.3 841.9" style="enable-background:new 0 0 595.3 841.9;" xml:space="preserve">
<style type="text/css">
<![CDATA[
	.st0{clip-path:url(#SVGID_2_);fill:#A3A3A2;}
	.st1{fill:#E8C61D;}
	.st2{clip-path:url(#SVGID_4_);fill:#A3A3A2;}
	.st3{clip-path:url(#SVGID_2_);fill:#E8E7E7;}
	.st4{clip-path:url(#SVGID_4_);fill:#E8E7E7;}
	.st5{clip-path:url(#SVGID_2_);fill:#FFFFFF;}
	.st6{clip-path:url(#SVGID_4_);fill:#FFFFFF;}
]]>
</style>
<g>
	<defs>
		<rect id="SVGID_1_" x="171" y="370.1" width="252.8" height="104.8"/>
	</defs>
	<clipPath id="SVGID_2_">
		<use xlink:href="#SVGID_1_" style="overflow:visible;"/>
	</clipPath>
	<path class="st5" d="M172.5,425.2h53.3v-26.7c-5.3,0-11,0.9-16.7,2.1v7.9h-20v-2.8c-6.3,1.6-12,2.8-16.7,2.8V425.2z"/>
	<path class="st0" d="M209.2,398.3c5.7-1.2,11.4-2.1,16.7-2.1v-17.3c-8,0-17,2-25.6,4.3v5.4h8.9V398.3z"/>
	<path class="st3" d="M200.3,380.7c8.6-2.2,17.5-4.3,25.6-4.3v-4.6h-25.6V380.7z"/>
</g>
<rect x="191.4" y="390.7" class="st1" width="15.6" height="15.6"/>
<g>
	<defs>
		<rect id="SVGID_3_" x="171" y="370.1" width="252.8" height="104.8"/>
	</defs>
	<clipPath id="SVGID_4_">
		<use xlink:href="#SVGID_3_" style="overflow:visible;"/>
	</clipPath>
	<path class="st2" d="M189.1,388.5h8.9v-4.8c-9.7,2.5-18.8,5.1-25.6,5.1v17.3c4.7,0,10.4-1.2,16.7-2.8V388.5z"/>
	<path class="st4" d="M172.5,386.4c6.8,0,15.9-2.6,25.6-5.1v-9.5h-25.6V386.4z"/>
	<path class="st6" d="M417.5,457.7h-1.8v13.4h1.8v-6.6h2.7v6.6h1.8v-13.4h-1.8v5.2h-2.7V457.7z M413.7,442.2c0.9,0,1,0.8,1,1.4v6.2   h1.7v-6.2c0-1.4-0.1-2.9-1.8-2.9c-0.4,0-0.8,0.1-1.1,0.3c-0.3,0.2-0.5,0.5-0.7,0.9h0v-1H411v9h1.7v-5.6   C412.6,443.4,412.5,442.2,413.7,442.2 M410.2,466.6c0-0.7-0.1-3.1,1-3.1c1.2,0,1.1,2.4,1.1,3.1c0,0.7,0.1,3.1-1.1,3.1   C410.2,469.7,410.2,467.3,410.2,466.6 M410.3,456.4h-1.7v14.7h1.7v-1.2h0c0.3,0.8,0.7,1.3,1.7,1.3c2.1,0,2.1-3.3,2.1-4.7   c0-1.5-0.1-4.5-2.2-4.5c-0.4,0-0.7,0.1-1,0.3c-0.2,0.2-0.4,0.5-0.6,0.8h0V456.4z M399.8,462.1h-1.7v9h1.7v-5.7c0-0.8,0-1.9,1-1.9   c1,0,0.9,0.8,1,1.5v6.1h1.7v-5.7c0-0.8-0.1-1.9,1.1-1.9c0.8,0,0.9,0.7,0.9,1.3v6.3h1.7v-6.9c0-1.2-0.4-2.2-2-2.2   c-0.9,0-1.5,0.5-1.8,1.2h0c-0.2-0.8-0.8-1.2-1.6-1.2c-0.9,0-1.4,0.5-1.8,1.2h0V462.1z M400.6,444.5c0-0.7-0.1-2.3,1-2.3   c1,0,1,1.6,1,2.3H400.6z M400.6,445.6h3.7v-0.3c0-1.8-0.3-4.7-2.7-4.7c-2.5,0-2.7,2.9-2.7,4.7c0,1.9,0.2,4.6,2.7,4.6   c1.9,0,2.6-1.5,2.6-3.2h-1.5c0,0.7-0.2,1.7-1,1.7C400.6,448.4,400.6,446.4,400.6,445.6 M390.9,462.1h-0.9v1.3h0.9v7.6h1.7v-7.6h0.9   v-1.3h-0.9v-2.5h-1.7V462.1z M389.8,443.1c0-0.6,0.5-1,1.1-1c0.4,0,0.9,0.2,1.2,0.5v-1.6c-0.5-0.3-0.9-0.4-1.5-0.4   c-1.4,0-2.4,1-2.4,2.4c0,2.5,2.8,2.6,2.8,4.2c0,0.7-0.4,1.1-1.1,1.1c-0.6,0-1-0.2-1.4-0.6v1.6c0.5,0.3,0.9,0.4,1.5,0.4   c1.6,0,2.6-1.1,2.6-2.7C392.6,444.7,389.9,444.6,389.8,443.1 M386.5,462.1h-0.8v1.3h0.8v7.6h1.7v-7.6h1.4v-1.3h-1.4v-2.7   c0-0.6-0.1-1.4,0.8-1.4c0.3,0,0.5,0.1,0.7,0.2v-1.7c-0.4-0.2-0.7-0.2-1.1-0.2c-1.9,0-2,1.5-2,3V462.1z M380.7,466.6   c0-0.7-0.1-3.1,1.1-3.1c1.1,0,1,2.4,1,3.1s0.1,3.1-1,3.1C380.6,469.7,380.7,467.3,380.7,466.6 M379,466.5c0,1.5,0,4.7,2.1,4.7   c1,0,1.3-0.5,1.7-1.3h0v1.2h1.7v-9h-1.7v1h0c-0.3-0.7-0.8-1.1-1.6-1.1C379.1,462,379,465,379,466.5 M380.2,446.5   c0,0.8,0.1,1.9-1,1.9c-1.1,0-1-1.2-1-2v-5.6h-1.7v5.7c0,2,0.3,3.4,2.8,3.4c2,0,2.6-1.2,2.6-3v-6h-1.7V446.5z M374,456.4h-1.7v14.7   h1.7v-5.6c0-0.8-0.1-2,1-2c0.9,0,1,0.8,1,1.4v6.2h1.7v-6.2c0-1.4,0-2.9-1.8-2.9c-0.4,0-0.8,0.1-1.1,0.3c-0.3,0.2-0.5,0.5-0.7,0.9h0   V456.4z M367.1,466.7c0,1.8,0.3,4.5,2.6,4.5c0.5,0,0.9-0.1,1.3-0.4v-1.5c-0.3,0.2-0.5,0.3-0.9,0.3c-1.4,0-1.4-2.2-1.4-3.1   c0-1,0-3,1.5-3c0.4,0,0.6,0.2,0.8,0.4h0v-1.7c-0.4-0.2-0.8-0.3-1.3-0.3C367.4,462,367.1,464.8,367.1,466.7 M368,445.3   c0,0.7,0.1,3.1-1,3.1c-1.2,0-1.1-2.4-1.1-3.1c0-0.7-0.1-3.1,1.1-3.1C368,442.2,368,444.6,368,445.3 M367.9,440.8v1h0   c-0.3-0.7-0.8-1.1-1.6-1.1c-2.1,0-2.2,3-2.2,4.5c0,1.5,0,4.7,2.1,4.7c1,0,1.3-0.5,1.7-1.3h0v1.2h1.7v-9H367.9z M364.7,468.6   c0,0.7-0.4,1.1-1.1,1.1c-0.6,0-1-0.2-1.4-0.6v1.6c0.5,0.3,0.9,0.4,1.5,0.4c1.6,0,2.6-1.1,2.6-2.7c0-2.6-2.8-2.6-2.8-4.1   c0-0.6,0.5-1,1.1-1c0.4,0,0.9,0.2,1.2,0.5v-1.6c-0.5-0.3-0.9-0.4-1.5-0.4c-1.4,0-2.4,1-2.4,2.4C361.9,466.9,364.7,467,364.7,468.6    M360.9,456.4h-1.7v14.7h1.7V456.4z M357.7,456.4H356v14.7h1.7V456.4z M354.8,442.2c0.9,0,1,0.8,1,1.4v6.2h1.7v-6.2   c0-1.4,0-2.9-1.8-2.9c-0.4,0-0.8,0.1-1.1,0.3c-0.3,0.2-0.5,0.5-0.7,0.9h0v-6.8h-1.7v14.7h1.7v-5.6   C353.8,443.4,353.7,442.2,354.8,442.2 M352,463.5c1,0,1,1.6,1,2.3h-2C351,465,350.9,463.5,352,463.5 M349.3,466.7   c0,1.9,0.2,4.6,2.7,4.6c1.9,0,2.6-1.5,2.6-3.2h-1.5c0,0.7-0.2,1.7-1,1.7c-1.1,0-1-2.1-1-2.8h3.7v-0.3c0-1.8-0.3-4.7-2.7-4.7   C349.5,462,349.3,464.8,349.3,466.7 M346.9,468.6c0,0.7-0.4,1.1-1.1,1.1c-0.6,0-1-0.2-1.4-0.6v1.6c0.5,0.3,0.9,0.4,1.5,0.4   c1.6,0,2.6-1.1,2.6-2.7c0-2.6-2.8-2.6-2.8-4.1c0-0.6,0.5-1,1.1-1c0.4,0,0.9,0.2,1.2,0.5v-1.6c-0.5-0.3-0.9-0.4-1.5-0.4   c-1.4,0-2.4,1-2.4,2.4C344.1,466.9,346.9,467,346.9,468.6 M342.8,443.1c0-0.6,0.5-1,1.1-1c0.4,0,0.9,0.2,1.2,0.5v-1.6   c-0.5-0.3-0.9-0.4-1.5-0.4c-1.4,0-2.4,1-2.4,2.4c0,2.5,2.8,2.6,2.8,4.2c0,0.7-0.4,1.1-1.1,1.1c-0.6,0-1-0.2-1.4-0.6v1.6   c0.5,0.3,0.9,0.4,1.5,0.4c1.6,0,2.6-1.1,2.6-2.7C345.6,444.7,342.8,444.6,342.8,443.1 M340.6,463.5c1,0,1,1.6,1,2.3h-2   C339.6,465,339.6,463.5,340.6,463.5 M337.9,466.7c0,1.9,0.2,4.6,2.7,4.6c1.9,0,2.6-1.5,2.6-3.2h-1.5c0,0.7-0.2,1.7-1,1.7   c-1.1,0-1-2.1-1-2.8h3.7v-0.3c0-1.8-0.3-4.7-2.7-4.7C338.2,462,337.9,464.8,337.9,466.7 M333.9,469.7c-1.2,0-1.1-2.5-1.1-3.2   c0-0.6-0.1-3.1,1-3.1c1.1,0,1.1,2.4,1.1,3.2C335,467.4,335.1,469.7,333.9,469.7 M334.9,471.5c0,0.8,0.1,1.9-1,1.9   c-0.8,0-1.1-0.7-1.1-1.3h-1.6v0.2c0,1.7,1,2.6,2.6,2.6c1.8,0,2.7-0.5,2.7-3.7v-9h-1.7v1l0,0c-0.4-0.7-0.7-1.2-1.6-1.2   c-2.2,0-2.1,3.2-2.1,4.7c0,1.5,0.1,4.6,2.2,4.6c0.8,0,1.4-0.5,1.6-1.2h0V471.5z M333.3,449.8v-5.6c0-1.1,0.4-1.8,1.6-1.8l0.3,0   v-1.6c-0.9,0-1.5,0.5-1.9,1.2h0v-1.1h-1.7v9H333.3z M328.7,468.6c0,0.7-0.4,1.1-1.1,1.1c-0.6,0-1-0.2-1.4-0.6v1.6   c0.5,0.3,0.9,0.4,1.5,0.4c1.6,0,2.6-1.1,2.6-2.7c0-2.6-2.8-2.6-2.8-4.1c0-0.6,0.5-1,1.1-1c0.4,0,0.9,0.2,1.2,0.5v-1.6   c-0.5-0.3-0.9-0.4-1.5-0.4c-1.4,0-2.4,1-2.4,2.4C325.9,466.9,328.7,467,328.7,468.6 M321.2,444.5c0-0.7-0.1-2.3,1-2.3   c1,0,1,1.6,1,2.3H321.2z M321.2,445.6h3.7v-0.3c0-1.8-0.3-4.7-2.7-4.7c-2.5,0-2.7,2.9-2.7,4.7c0,1.9,0.2,4.6,2.7,4.6   c1.9,0,2.6-1.5,2.6-3.2h-1.5c0,0.7-0.2,1.7-1,1.7C321.2,448.4,321.2,446.4,321.2,445.6 M322.2,469.7c-1.2,0-1.1-2.5-1.1-3.2   c0-0.6-0.1-3.1,1-3.1c1.1,0,1.1,2.4,1.1,3.2C323.2,467.4,323.4,469.7,322.2,469.7 M323.2,471.5c0,0.8,0.1,1.9-1,1.9   c-0.8,0-1.1-0.7-1.1-1.3h-1.6v0.2c0,1.7,1,2.6,2.6,2.6c1.8,0,2.7-0.5,2.7-3.7v-9h-1.7v1l0,0c-0.4-0.7-0.7-1.2-1.6-1.2   c-2.2,0-2.1,3.2-2.1,4.7c0,1.5,0.1,4.6,2.2,4.6c0.8,0,1.4-0.5,1.6-1.2h0V471.5z M314.4,462.1h-1.7v9h1.7v-5.6c0-0.8-0.1-2,1-2   c0.9,0,1,0.8,1,1.4v6.2h1.7v-6.2c0-1.4-0.1-2.9-1.8-2.9c-0.4,0-0.8,0.1-1.1,0.3c-0.3,0.2-0.5,0.5-0.7,0.9h0V462.1z M310.2,448.4   c-1.2,0-1.1-2.4-1.1-3.1c0-0.7-0.1-3.1,1.1-3.1c1.1,0,1,2.4,1,3.1C311.2,446,311.3,448.4,310.2,448.4 M311.1,448.6L311.1,448.6   l0,1.2h1.7v-14.7h-1.7v6.8h0c-0.3-0.7-0.7-1.1-1.6-1.1c-2.1,0-2.2,3-2.2,4.5c0,1.5,0,4.7,2.1,4.7   C310.4,449.9,310.8,449.4,311.1,448.6 M307.5,462.1h-1.7v5.7c0,2,0.3,3.4,2.8,3.4c2,0,2.6-1.2,2.6-3v-6h-1.7v5.7   c0,0.8,0.1,1.9-1,1.9c-1.1,0-1-1.2-1-2V462.1z M302.7,462.1H301v9h1.7v-5.6c0-1.1,0.4-1.8,1.6-1.8l0.3,0V462   c-0.9,0-1.5,0.5-1.9,1.2h0V462.1z M297,444.2c0-0.8-0.1-2,1-2c0.9,0,1,0.8,1,1.4v6.2h1.7v-6.2c0-1.4-0.1-2.9-1.8-2.9   c-0.4,0-0.8,0.1-1.1,0.3c-0.3,0.2-0.5,0.5-0.7,0.9h0v-1h-1.7v9h1.7V444.2z M297,463.5c1,0,1,1.6,1,2.3h-2   C296,465,295.9,463.5,297,463.5 M294.3,466.7c0,1.9,0.2,4.6,2.7,4.6c1.9,0,2.6-1.5,2.6-3.2h-1.5c0,0.7-0.2,1.7-1,1.7   c-1.1,0-1-2.1-1-2.8h3.7v-0.3c0-1.8-0.3-4.7-2.7-4.7C294.5,462,294.3,464.8,294.3,466.7 M289.3,456.4h-1.7v14.7h1.7v-5.6   c0-0.8-0.1-2,1-2c0.9,0,1,0.8,1,1.4v6.2h1.7v-6.2c0-1.4,0-2.9-1.8-2.9c-0.4,0-0.8,0.1-1.1,0.3c-0.3,0.2-0.5,0.5-0.7,0.9h0V456.4z    M285.9,448.4c-1.3,0-1.1-2.4-1.1-3.1c0-0.7-0.2-3.1,1.1-3.1c1.3,0,1.1,2.4,1.1,3.1C287,446,287.1,448.4,285.9,448.4 M285.9,449.9   c2.6,0,2.8-2.7,2.8-4.6c0-2-0.3-4.6-2.8-4.6c-2.6,0-2.8,2.7-2.8,4.6C283,447.2,283.3,449.9,285.9,449.9 M282.4,466.7   c0,1.8,0.3,4.5,2.6,4.5c0.5,0,0.9-0.1,1.3-0.4v-1.5c-0.3,0.2-0.5,0.3-0.9,0.3c-1.4,0-1.4-2.2-1.4-3.1c0-1,0-3,1.5-3   c0.4,0,0.6,0.2,0.8,0.4h0v-1.7c-0.4-0.2-0.8-0.3-1.3-0.3C282.6,462,282.4,464.8,282.4,466.7 M281.1,462.1h-1.7v9h1.7V462.1z    M279.2,459.4c0,0.6,0.5,1.1,1.1,1.1c0.6,0,1.1-0.5,1.1-1.1c0-0.6-0.5-1.1-1.1-1.1C279.7,458.3,279.2,458.8,279.2,459.4    M276.4,467.7c0,1-0.5,1.9-1.6,1.9c-0.7,0-1.2-0.3-1.8-0.7v1.8c0.6,0.4,1.3,0.6,2,0.6c2,0,3.1-1.6,3.1-3.5c0-1.8-0.7-2.7-1.9-3.9   l-1.4-1.5c-0.4-0.5-0.5-0.9-0.5-1.5c0-0.9,0.6-1.7,1.6-1.7c0.6,0,1,0.2,1.5,0.6l0-1.8c-0.6-0.3-1.2-0.4-1.9-0.4c-2,0-3,1.5-3,3.4   C272.7,464.5,276.4,465,276.4,467.7 M274.9,446.4c0,1-0.5,1.9-1.6,1.9c-0.7,0-1.2-0.3-1.8-0.7v1.8c0.5,0.4,1.3,0.6,2,0.6   c2,0,3.1-1.6,3.1-3.5c0-1.8-0.7-2.7-1.9-3.9l-1.3-1.5c-0.4-0.5-0.5-0.9-0.5-1.5c0-0.9,0.6-1.7,1.6-1.7c0.6,0,1,0.2,1.5,0.6l0-1.8   c-0.6-0.3-1.2-0.4-1.9-0.4c-2,0-3,1.5-3,3.4C271.2,443.2,274.9,443.7,274.9,446.4 M264.1,466.6c0-0.7-0.1-3.1,1.1-3.1   c1.1,0,1,2.4,1,3.1s0.1,3.1-1,3.1C264,469.7,264.1,467.3,264.1,466.6 M262.4,466.5c0,1.5,0,4.7,2.1,4.7c0.9,0,1.3-0.5,1.7-1.3h0   v1.2h1.7v-14.7h-1.7v6.8h0c-0.3-0.7-0.7-1.1-1.6-1.1C262.5,462,262.4,465,262.4,466.5 M257.4,462.1h-1.7v9h1.7v-5.6   c0-0.8-0.1-2,1-2c0.9,0,1,0.8,1,1.4v6.2h1.7v-6.2c0-1.4-0.1-2.9-1.8-2.9c-0.4,0-0.8,0.1-1.1,0.3c-0.3,0.2-0.5,0.5-0.7,0.9h0V462.1z    M254.8,449.8v-7.6h1.4v-1.3h-1.4v-2.7c0-0.6-0.1-1.4,0.8-1.4c0.3,0,0.5,0.1,0.7,0.2v-1.7c-0.4-0.2-0.7-0.2-1.1-0.2   c-1.9,0-2,1.5-2,3v2.9h-0.8v1.3h0.8v7.6H254.8z M250.5,462.1h-1.7v5.7c0,2,0.3,3.4,2.8,3.4c2,0,2.6-1.2,2.6-3v-6h-1.7v5.7   c0,0.8,0.1,1.9-1,1.9c-1.1,0-1-1.2-1-2V462.1z M243.8,465.8h-3.2v1.3h3.2V465.8z M198.4,462.1h-1.7v9h1.7V462.1z M176.1,457.7h-4.8   v13.4h4.8v-1.5h-3V465h2.7v-1.5h-2.7v-4.2h3V457.7z M177.7,442.9v-0.2h-3.3v1.5h1.5v0.7c0,3.2-0.8,3.3-1.5,3.3   c-0.8,0-1.6-0.5-1.6-5.2c0-3.2,0.1-5.2,1.6-5.2c1.1,0,1.3,0.9,1.5,1.8l1.7-0.7c-0.5-1.8-1.4-2.7-3.3-2.7c-3.1,0-3.4,3.2-3.4,6.9   c0,3.8,0.4,6.8,3.5,6.8C178.1,450,177.7,445.5,177.7,442.9 M180.9,471.1h1.7v-6.2c0-1.4-0.1-2.9-1.8-2.9c-0.4,0-0.8,0.1-1.1,0.3   c-0.3,0.2-0.5,0.5-0.7,0.9h0v-1h-1.7v9h1.7v-5.6c0-0.8-0.1-2,1-2c0.9,0,1,0.8,1,1.4V471.1z M184.6,449.8h1.7v-14.7h-1.7V449.8z    M186.1,463.4h0.9v-1.3h-0.9v-2.5h-1.7v2.5h-0.9v1.3h0.9v7.6h1.7V463.4z M193.3,468.4l-1-6.2h-1.2l-0.7,3.6l-0.4,2.8h0v-0.2l-1-6.2   h-1.8l2.2,9h1.2l0.7-3.4l0.4-3.2h0l0.2,2l0.9,4.6h1.1l2.1-9h-1.6l-0.6,3.1l-0.5,3.3h0V468.4z M195.5,438c0-0.5-0.4-1-1-1   c-0.6,0-1,0.5-1,1c0,0.6,0.5,1,1,1C195,439.1,195.5,438.6,195.5,438 M198.3,438c0-0.5-0.4-1-1-1c-0.6,0-1,0.5-1,1c0,0.6,0.5,1,1,1   C197.9,439.1,198.3,438.6,198.3,438 M198.6,446.9v-6h-1.7v5.7c0,0.8,0.1,1.9-1,1.9c-1.1,0-1-1.2-1-2v-5.6h-1.7v5.7   c0,2,0.3,3.4,2.8,3.4C198,449.9,198.6,448.7,198.6,446.9 M198.7,459.4c0-0.6-0.5-1.1-1.1-1.1c-0.6,0-1.1,0.5-1.1,1.1   c0,0.6,0.5,1.1,1.1,1.1C198.2,460.5,198.7,460,198.7,459.4 M202.4,471.2c0.5,0,0.9-0.1,1.3-0.4v-1.5c-0.3,0.2-0.5,0.3-0.9,0.3   c-1.4,0-1.4-2.2-1.4-3.1c0-1,0-3,1.5-3c0.4,0,0.6,0.2,0.8,0.4h0v-1.7c-0.4-0.2-0.8-0.3-1.3-0.3c-2.4,0-2.7,2.9-2.7,4.7   C199.7,468.5,200,471.2,202.4,471.2 M207.9,449.9c0.5,0,0.9-0.1,1.3-0.4V448c-0.3,0.2-0.5,0.3-0.9,0.3c-1.4,0-1.4-2.2-1.4-3.1   c0-1,0-3,1.5-3c0.4,0,0.6,0.2,0.8,0.4h0V441c-0.4-0.2-0.8-0.3-1.3-0.3c-2.4,0-2.7,2.9-2.7,4.7C205.3,447.2,205.5,449.9,207.9,449.9    M210.9,471.1l-2.6-5l2.3-4h-1.9l-2.1,4h0v-9.7H205v14.7h1.7v-4.8h0l2.3,4.8H210.9z M212,471.1h1.7v-14.7H212V471.1z M216.9,462.1   h-1.7v5.7c0,2,0.3,3.4,2.8,3.4c2,0,2.6-1.2,2.6-3v-6h-1.7v5.7c0,0.8,0.1,1.9-1,1.9c-1.1,0-1-1.2-1-2V462.1z M221.8,449.8l-2.6-5   l2.3-4h-1.9l-2.1,4h0v-9.7h-1.7v14.7h1.7V445h0l2.3,4.8H221.8z M225.8,471.1h1.7v-6.2c0-1.4-0.1-2.9-1.8-2.9   c-0.4,0-0.8,0.1-1.1,0.3c-0.3,0.2-0.5,0.5-0.7,0.9h0v-1h-1.7v9h1.7v-5.6c0-0.8-0.1-2,1-2c0.9,0,1,0.8,1,1.4V471.1z M231.9,445.3   c0,0.7,0.1,3.1-1,3.1c-1.2,0-1.1-2.4-1.1-3.1c0-0.7-0.1-3.1,1.1-3.1C231.9,442.2,231.9,444.6,231.9,445.3 M231.8,449.8h1.7v-9h-1.7   v1h0c-0.3-0.7-0.8-1.1-1.6-1.1c-2.1,0-2.2,3-2.2,4.5c0,1.5,0,4.7,2.1,4.7c1,0,1.3-0.5,1.7-1.3h0V449.8z M231.6,469.7   c-1.2,0-1.1-2.5-1.1-3.2c0-0.6-0.1-3.1,1-3.1c1.1,0,1.1,2.4,1.1,3.2C232.7,467.4,232.8,469.7,231.6,469.7 M234.3,471.1v-9h-1.7v1   l0,0c-0.4-0.7-0.7-1.2-1.6-1.2c-2.2,0-2.1,3.2-2.1,4.7c0,1.5,0.1,4.6,2.2,4.6c0.8,0,1.4-0.5,1.6-1.2h0v1.5c0,0.8,0.1,1.9-1,1.9   c-0.8,0-1.1-0.7-1.1-1.3h-1.6v0.2c0,1.7,1,2.6,2.6,2.6C233.4,474.9,234.3,474.3,234.3,471.1 M236.9,464.4c0-0.6,0.5-1,1.1-1   c0.4,0,0.9,0.2,1.2,0.5v-1.6c-0.5-0.3-0.9-0.4-1.5-0.4c-1.4,0-2.4,1-2.4,2.4c0,2.5,2.8,2.6,2.8,4.2c0,0.7-0.4,1.1-1.1,1.1   c-0.6,0-1-0.2-1.4-0.6v1.6c0.5,0.3,0.9,0.4,1.5,0.4c1.6,0,2.6-1.1,2.6-2.7C239.7,466,236.9,465.9,236.9,464.4 M242.1,440.8h-1.7   v5.7c0,2,0.3,3.4,2.8,3.4c2,0,2.6-1.2,2.6-3v-6h-1.7v5.7c0,0.8,0.1,1.9-1,1.9c-1.1,0-1-1.2-1-2V440.8z M266.4,408.5h7.5l-1,5.8   c-1.6,9.8-5.9,10.2-10.3,10.2c-5.5,0-7.7-2-7.7-7.7c0-8,2.2-18.6,4.2-26.4c1.8-6.9,5.1-17.9,13.7-17.9c7.7,0,10.6,7.2,11.4,13.8   l3,0.3l2.2-15.4h-1.5l-4.1,3.2c-3.4-2.7-7.3-4.4-11.6-4.4c-7.5,0-14.2,4.7-19.5,9.8c-6.9,6.7-12,16-12,26c0,14,9.6,21.1,22.6,21.1   c9.4,0,21.6-8.1,22.3-10.8l2-7.6h6.2l0.6-2.4H267L266.4,408.5z M331.8,386.2l2.1-14.9h-2.1l-3.4,2.8c-4-2.6-7.1-4-11.9-4   c-10.3,0-16.3,8.5-16.3,18.2c0,5.9,1.4,8.7,13.4,15.5c5.1,2.8,10.3,4.8,10.3,10.5c0,6.1-4.4,10.2-12.1,10.2   c-9,0-13.3-6.7-13.8-15.1h-2.9l-2.6,16.4h2.1l4.6-3.3c3.7,3.3,8.3,4.6,13.1,4.6c10.3,0,19.2-7.7,19.2-20.4c0-9.4-6-13.4-12.1-16.3   c-6-2.9-12.1-5-12.1-10.5c0-4.9,5.2-7.2,9.4-7.2c5.5,0,10.2,3.3,11.3,9c0.3,1.5,0.5,3,0.6,4.7H331.8z M380.4,386.6l2.2-15.3h-42   l-0.5,2.4h6.4l-10.2,49.5h-5.9l-0.5,2.4h44.9l4-18.2H376c-5,10.8-10.2,15.7-22.2,15.7h-3.9l5-24.8h1.8c6.1,0,5.9,5.5,5.9,10.9h3   l4.7-22.7h-2.9c-2.9,8-7.5,9.4-9.4,9.4h-2.4l4.6-22.2h4.3c8.3,0,12.9,1.1,13.1,12.9H380.4z M423.8,371.3h-2.1l-3.4,2.8   c-4-2.6-7.1-4-11.9-4c-10.3,0-16.3,8.5-16.3,18.2c0,5.9,1.4,8.7,13.4,15.5c5.1,2.8,10.3,4.8,10.3,10.5c0,6.1-4.4,10.2-12.1,10.2   c-9,0-13.3-6.7-13.8-15.1h-2.8l-2.6,16.4h2.1l4.6-3.3c3.7,3.3,8.3,4.6,13.1,4.6c10.3,0,19.2-7.7,19.2-20.4c0-9.4-6-13.4-12.1-16.3   c-6-2.9-12-5-12-10.5c0-4.9,5.2-7.2,9.4-7.2c5.5,0,10.2,3.3,11.3,9c0.3,1.5,0.5,3,0.6,4.7h3.1L423.8,371.3z"/>
</g>
</svg></svg></svg>
