<?xml version="1.0" encoding="utf-8"?>
<!-- Generator: Adobe Illustrator 16.0.0, SVG Export Plug-In . SVG Version: 6.00 Build 0)  -->
<!DOCTYPE svg PUBLIC "-//W3C//DTD SVG 1.1//EN" "http://www.w3.org/Graphics/SVG/1.1/DTD/svg11.dtd">
<svg version="1.1" id="Ebene_1" xmlns="http://www.w3.org/2000/svg" xmlns:xlink="http://www.w3.org/1999/xlink" x="0px" y="0px"
	 width="252px" height="104px" viewBox="0 0 252 104" style="enable-background:new 0 0 252 104;" xml:space="preserve">
<style type="text/css">
<![CDATA[
	.st0{clip-path:url(#SVGID_2_);fill:#A2A2A1;}
	.st1{fill:#E7C51B;}
	.st2{clip-path:url(#SVGID_4_);fill:#A2A2A1;}
	.st3{clip-path:url(#SVGID_2_);fill:#E6E6E6;}
	.st4{clip-path:url(#SVGID_4_);fill:#E6E6E6;}
	.st5{clip-path:url(#SVGID_2_);fill:#FFFFFF;}
	.st6{clip-path:url(#SVGID_4_);fill:#FFFFFF;}
]]>
</style>
<g>
	<defs>
		<rect id="SVGID_1_" y="0.2" width="252.8" height="104.8"/>
	</defs>
	<clipPath id="SVGID_2_">
		<use xlink:href="#SVGID_1_"  style="overflow:visible;"/>
	</clipPath>
	<path class="st5" d="M1.5,55.3h53.3V28.6c-5.3,0-11,0.9-16.7,2.1v7.9h-20v-2.8c-6.3,1.6-12,2.8-16.7,2.8V55.3z"/>
	<path class="st0" d="M38.2,28.4c5.7-1.2,11.4-2.1,16.7-2.1V8.9c-8,0-17,2-25.6,4.3v5.4h8.9V28.4z"/>
	<path class="st3" d="M29.3,10.8c8.6-2.2,17.5-4.3,25.6-4.3V1.9H29.3V10.8z"/>
</g>
<rect x="20.4" y="20.8" class="st1" width="15.6" height="15.6"/>
<g>
	<defs>
		<rect id="SVGID_3_" y="0.2" width="252.8" height="104.8"/>
	</defs>
	<clipPath id="SVGID_4_">
		<use xlink:href="#SVGID_3_"  style="overflow:visible;"/>
	</clipPath>
	<path class="st2" d="M18.1,18.6H27v-4.8c-9.7,2.5-18.8,5.1-25.6,5.1v17.3c4.7,0,10.4-1.2,16.7-2.8V18.6z"/>
	<path class="st4" d="M1.5,16.5c6.8,0,15.9-2.6,25.6-5.1V1.9H1.5V16.5z"/>
	<path class="st6" d="M246.5,87.8h-1.8v13.4h1.8v-6.6h2.7v6.6h1.8V87.8h-1.8V93h-2.7V87.8z M242.6,72.3c0.9,0,1,0.8,1,1.4v6.2h1.7
		v-6.2c0-1.4-0.1-2.9-1.8-2.9c-0.4,0-0.8,0.1-1.1,0.3c-0.3,0.2-0.5,0.5-0.7,0.9h0v-1H240v9h1.7v-5.6
		C241.6,73.6,241.5,72.3,242.6,72.3 M239.2,96.7c0-0.7-0.1-3.1,1-3.1c1.2,0,1.1,2.4,1.1,3.1c0,0.7,0.1,3.1-1.1,3.1
		C239.2,99.8,239.2,97.4,239.2,96.7 M239.3,86.5h-1.7v14.7h1.7V100h0c0.3,0.8,0.7,1.3,1.7,1.3c2.1,0,2.1-3.3,2.1-4.7
		c0-1.5-0.1-4.5-2.2-4.5c-0.4,0-0.7,0.1-1,0.3c-0.2,0.2-0.4,0.5-0.6,0.8h0V86.5z M228.8,92.2h-1.7v9h1.7v-5.7c0-0.8,0-1.9,1-1.9
		c1,0,0.9,0.8,1,1.5v6.1h1.7v-5.7c0-0.8-0.1-1.9,1.1-1.9c0.8,0,0.9,0.7,0.9,1.3v6.3h1.7v-6.9c0-1.2-0.4-2.2-2-2.2
		c-0.9,0-1.5,0.5-1.8,1.2h0c-0.2-0.8-0.8-1.2-1.6-1.2c-0.9,0-1.4,0.5-1.8,1.2h0V92.2z M229.6,74.6c0-0.7-0.1-2.3,1-2.3
		c1,0,1,1.6,1,2.3H229.6z M229.6,75.8h3.7v-0.3c0-1.8-0.3-4.7-2.7-4.7c-2.5,0-2.7,2.9-2.7,4.7c0,1.9,0.2,4.6,2.7,4.6
		c1.9,0,2.6-1.5,2.6-3.2h-1.5c0,0.7-0.2,1.7-1,1.7C229.6,78.6,229.6,76.5,229.6,75.8 M219.9,92.2H219v1.3h0.9v7.6h1.7v-7.6h0.9v-1.3
		h-0.9v-2.5h-1.7V92.2z M218.8,73.2c0-0.6,0.5-1,1.1-1c0.4,0,0.9,0.2,1.2,0.5v-1.6c-0.5-0.3-0.9-0.4-1.5-0.4c-1.4,0-2.4,1-2.4,2.4
		c0,2.5,2.8,2.6,2.8,4.2c0,0.7-0.4,1.1-1.1,1.1c-0.6,0-1-0.2-1.4-0.6v1.6c0.5,0.3,0.9,0.4,1.5,0.4c1.6,0,2.6-1.1,2.6-2.7
		C221.6,74.8,218.9,74.8,218.8,73.2 M215.5,92.2h-0.8v1.3h0.8v7.6h1.7v-7.6h1.4v-1.3h-1.4v-2.7c0-0.6-0.1-1.4,0.8-1.4
		c0.3,0,0.5,0.1,0.7,0.2v-1.7c-0.4-0.2-0.7-0.2-1.1-0.2c-1.9,0-2,1.5-2,3V92.2z M209.7,96.7c0-0.7-0.1-3.1,1.1-3.1
		c1.1,0,1,2.4,1,3.1c0,0.7,0.1,3.1-1,3.1C209.6,99.8,209.7,97.4,209.7,96.7 M208,96.6c0,1.5,0,4.7,2.1,4.7c1,0,1.3-0.5,1.7-1.3h0
		v1.2h1.7v-9h-1.7v1h0c-0.3-0.7-0.8-1.1-1.6-1.1C208.1,92.1,208,95.1,208,96.6 M209.2,76.6c0,0.8,0.1,1.9-1,1.9c-1.1,0-1-1.2-1-2
		v-5.6h-1.7v5.7c0,2,0.3,3.4,2.8,3.4c2,0,2.6-1.2,2.6-3v-6h-1.7V76.6z M203,86.5h-1.7v14.7h1.7v-5.6c0-0.8-0.1-2,1-2
		c0.9,0,1,0.8,1,1.4v6.2h1.7V95c0-1.4,0-2.9-1.8-2.9c-0.4,0-0.8,0.1-1.1,0.3c-0.3,0.2-0.5,0.5-0.7,0.9h0V86.5z M196.1,96.8
		c0,1.8,0.3,4.5,2.6,4.5c0.5,0,0.9-0.1,1.3-0.4v-1.5c-0.3,0.2-0.5,0.3-0.9,0.3c-1.4,0-1.4-2.2-1.4-3.1c0-1,0-3,1.5-3
		c0.4,0,0.6,0.2,0.8,0.4h0v-1.7c-0.4-0.2-0.8-0.3-1.3-0.3C196.4,92.1,196.1,94.9,196.1,96.8 M197,75.4c0,0.7,0.1,3.1-1,3.1
		c-1.2,0-1.1-2.4-1.1-3.1c0-0.7-0.1-3.1,1.1-3.1C197,72.3,197,74.7,197,75.4 M196.9,70.9v1h0c-0.3-0.7-0.8-1.1-1.6-1.1
		c-2.1,0-2.2,3-2.2,4.5c0,1.5,0,4.7,2.1,4.7c1,0,1.3-0.5,1.7-1.3h0v1.2h1.7v-9H196.9z M193.7,98.7c0,0.7-0.4,1.1-1.1,1.1
		c-0.6,0-1-0.2-1.4-0.6v1.6c0.5,0.3,0.9,0.4,1.5,0.4c1.6,0,2.6-1.1,2.6-2.7c0-2.6-2.8-2.6-2.8-4.1c0-0.6,0.5-1,1.1-1
		c0.4,0,0.9,0.2,1.2,0.5v-1.6c-0.5-0.3-0.9-0.4-1.5-0.4c-1.4,0-2.4,1-2.4,2.4C190.9,97,193.7,97.1,193.7,98.7 M189.9,86.5h-1.7v14.7
		h1.7V86.5z M186.7,86.5H185v14.7h1.7V86.5z M183.8,72.3c0.9,0,1,0.8,1,1.4v6.2h1.7v-6.2c0-1.4,0-2.9-1.8-2.9
		c-0.4,0-0.8,0.1-1.1,0.3c-0.3,0.2-0.5,0.5-0.7,0.9h0v-6.8h-1.7v14.7h1.7v-5.6C182.8,73.6,182.7,72.3,183.8,72.3 M181,93.6
		c1,0,1,1.6,1,2.3h-2C180,95.2,179.9,93.6,181,93.6 M178.3,96.8c0,1.9,0.2,4.6,2.7,4.6c1.9,0,2.6-1.5,2.6-3.2h-1.5
		c0,0.7-0.2,1.7-1,1.7c-1.1,0-1-2.1-1-2.8h3.7v-0.3c0-1.8-0.3-4.7-2.7-4.7C178.5,92.1,178.3,94.9,178.3,96.8 M175.9,98.7
		c0,0.7-0.4,1.1-1.1,1.1c-0.6,0-1-0.2-1.4-0.6v1.6c0.5,0.3,0.9,0.4,1.5,0.4c1.6,0,2.6-1.1,2.6-2.7c0-2.6-2.8-2.6-2.8-4.1
		c0-0.6,0.5-1,1.1-1c0.4,0,0.9,0.2,1.2,0.5v-1.6c-0.5-0.3-0.9-0.4-1.5-0.4c-1.4,0-2.4,1-2.4,2.4C173.1,97,175.9,97.1,175.9,98.7
		 M171.8,73.2c0-0.6,0.5-1,1.1-1c0.4,0,0.9,0.2,1.2,0.5v-1.6c-0.5-0.3-0.9-0.4-1.5-0.4c-1.4,0-2.4,1-2.4,2.4c0,2.5,2.8,2.6,2.8,4.2
		c0,0.7-0.4,1.1-1.1,1.1c-0.6,0-1-0.2-1.4-0.6v1.6c0.5,0.3,0.9,0.4,1.5,0.4c1.6,0,2.6-1.1,2.6-2.7C174.6,74.8,171.8,74.8,171.8,73.2
		 M169.6,93.6c1,0,1,1.6,1,2.3h-2C168.6,95.2,168.6,93.6,169.6,93.6 M166.9,96.8c0,1.9,0.2,4.6,2.7,4.6c1.9,0,2.6-1.5,2.6-3.2h-1.5
		c0,0.7-0.2,1.7-1,1.7c-1.1,0-1-2.1-1-2.8h3.7v-0.3c0-1.8-0.3-4.7-2.7-4.7C167.2,92.1,166.9,94.9,166.9,96.8 M162.9,99.8
		c-1.2,0-1.1-2.5-1.1-3.2c0-0.6-0.1-3.1,1-3.1c1.1,0,1.1,2.4,1.1,3.2S164.1,99.8,162.9,99.8 M163.9,101.6c0,0.8,0.1,1.9-1,1.9
		c-0.8,0-1.1-0.7-1.1-1.3h-1.6v0.2c0,1.7,1,2.6,2.6,2.6c1.8,0,2.7-0.5,2.7-3.7v-9h-1.7v1l0,0c-0.4-0.7-0.7-1.2-1.6-1.2
		c-2.2,0-2.1,3.2-2.1,4.7c0,1.5,0.1,4.6,2.2,4.6c0.8,0,1.4-0.5,1.6-1.2h0V101.6z M162.3,79.9v-5.6c0-1.1,0.4-1.8,1.6-1.8l0.3,0v-1.6
		c-0.9,0-1.5,0.5-1.9,1.2h0v-1.1h-1.7v9H162.3z M157.7,98.7c0,0.7-0.4,1.1-1.1,1.1c-0.6,0-1-0.2-1.4-0.6v1.6
		c0.5,0.3,0.9,0.4,1.5,0.4c1.6,0,2.6-1.1,2.6-2.7c0-2.6-2.8-2.6-2.8-4.1c0-0.6,0.5-1,1.1-1c0.4,0,0.9,0.2,1.2,0.5v-1.6
		c-0.5-0.3-0.9-0.4-1.5-0.4c-1.4,0-2.4,1-2.4,2.4C154.9,97,157.7,97.1,157.7,98.7 M150.2,74.6c0-0.7-0.1-2.3,1-2.3c1,0,1,1.6,1,2.3
		H150.2z M150.2,75.8h3.7v-0.3c0-1.8-0.3-4.7-2.7-4.7c-2.5,0-2.7,2.9-2.7,4.7c0,1.9,0.2,4.6,2.7,4.6c1.9,0,2.6-1.5,2.6-3.2h-1.5
		c0,0.7-0.2,1.7-1,1.7C150.2,78.6,150.2,76.5,150.2,75.8 M151.2,99.8c-1.2,0-1.1-2.5-1.1-3.2c0-0.6-0.1-3.1,1-3.1
		c1.1,0,1.1,2.4,1.1,3.2S152.4,99.8,151.2,99.8 M152.2,101.6c0,0.8,0.1,1.9-1,1.9c-0.8,0-1.1-0.7-1.1-1.3h-1.6v0.2
		c0,1.7,1,2.6,2.6,2.6c1.8,0,2.7-0.5,2.7-3.7v-9h-1.7v1l0,0c-0.4-0.7-0.7-1.2-1.6-1.2c-2.2,0-2.1,3.2-2.1,4.7c0,1.5,0.1,4.6,2.2,4.6
		c0.8,0,1.4-0.5,1.6-1.2h0V101.6z M143.4,92.2h-1.7v9h1.7v-5.6c0-0.8-0.1-2,1-2c0.9,0,1,0.8,1,1.4v6.2h1.7V95c0-1.4-0.1-2.9-1.8-2.9
		c-0.4,0-0.8,0.1-1.1,0.3c-0.3,0.2-0.5,0.5-0.7,0.9h0V92.2z M139.2,78.6c-1.2,0-1.1-2.4-1.1-3.1c0-0.7-0.1-3.1,1.1-3.1
		c1.1,0,1,2.4,1,3.1S140.3,78.6,139.2,78.6 M140.1,78.7L140.1,78.7l0,1.2h1.7V65.2h-1.7v6.8h0c-0.3-0.7-0.7-1.1-1.6-1.1
		c-2.1,0-2.2,3-2.2,4.5c0,1.5,0,4.7,2.1,4.7C139.4,80,139.8,79.5,140.1,78.7 M136.5,92.2h-1.7v5.7c0,2,0.3,3.4,2.8,3.4
		c2,0,2.6-1.2,2.6-3v-6h-1.7v5.7c0,0.8,0.1,1.9-1,1.9c-1.1,0-1-1.2-1-2V92.2z M131.7,92.2H130v9h1.7v-5.6c0-1.1,0.4-1.8,1.6-1.8
		l0.3,0v-1.6c-0.9,0-1.5,0.5-1.9,1.2h0V92.2z M126,74.3c0-0.8-0.1-2,1-2c0.9,0,1,0.8,1,1.4v6.2h1.7v-6.2c0-1.4-0.1-2.9-1.8-2.9
		c-0.4,0-0.8,0.1-1.1,0.3c-0.3,0.2-0.5,0.5-0.7,0.9h0v-1h-1.7v9h1.7V74.3z M126,93.6c1,0,1,1.6,1,2.3h-2
		C125,95.2,124.9,93.6,126,93.6 M123.3,96.8c0,1.9,0.2,4.6,2.7,4.6c1.9,0,2.6-1.5,2.6-3.2h-1.5c0,0.7-0.2,1.7-1,1.7
		c-1.1,0-1-2.1-1-2.8h3.7v-0.3c0-1.8-0.3-4.7-2.7-4.7C123.5,92.1,123.3,94.9,123.3,96.8 M118.3,86.5h-1.7v14.7h1.7v-5.6
		c0-0.8-0.1-2,1-2c0.9,0,1,0.8,1,1.4v6.2h1.7V95c0-1.4,0-2.9-1.8-2.9c-0.4,0-0.8,0.1-1.1,0.3c-0.3,0.2-0.5,0.5-0.7,0.9h0V86.5z
		 M114.9,78.5c-1.3,0-1.1-2.4-1.1-3.1c0-0.7-0.2-3.1,1.1-3.1c1.3,0,1.1,2.4,1.1,3.1C116,76.1,116.1,78.5,114.9,78.5 M114.9,80
		c2.6,0,2.8-2.7,2.8-4.6c0-2-0.3-4.6-2.8-4.6c-2.6,0-2.8,2.7-2.8,4.6C112,77.3,112.3,80,114.9,80 M111.4,96.8c0,1.8,0.3,4.5,2.6,4.5
		c0.5,0,0.9-0.1,1.3-0.4v-1.5c-0.3,0.2-0.5,0.3-0.9,0.3c-1.4,0-1.4-2.2-1.4-3.1c0-1,0-3,1.5-3c0.4,0,0.6,0.2,0.8,0.4h0v-1.7
		c-0.4-0.2-0.8-0.3-1.3-0.3C111.6,92.1,111.4,94.9,111.4,96.8 M110.1,92.2h-1.7v9h1.7V92.2z M108.2,89.5c0,0.6,0.5,1.1,1.1,1.1
		c0.6,0,1.1-0.5,1.1-1.1c0-0.6-0.5-1.1-1.1-1.1C108.7,88.4,108.2,88.9,108.2,89.5 M105.4,97.8c0,1-0.5,1.9-1.6,1.9
		c-0.7,0-1.2-0.3-1.8-0.7v1.8c0.6,0.4,1.3,0.6,2,0.6c2,0,3.1-1.6,3.1-3.5c0-1.8-0.7-2.7-1.9-3.9l-1.4-1.5c-0.4-0.5-0.5-0.9-0.5-1.5
		c0-0.9,0.6-1.7,1.6-1.7c0.6,0,1,0.2,1.5,0.6l0-1.8c-0.6-0.3-1.2-0.4-1.9-0.4c-2,0-3,1.5-3,3.4C101.7,94.6,105.4,95.1,105.4,97.8
		 M103.9,76.5c0,1-0.5,1.9-1.6,1.9c-0.7,0-1.2-0.3-1.8-0.7v1.8c0.5,0.4,1.3,0.6,2,0.6c2,0,3.1-1.6,3.1-3.5c0-1.8-0.7-2.7-1.9-3.9
		l-1.3-1.5c-0.4-0.5-0.5-0.9-0.5-1.5c0-0.9,0.6-1.7,1.6-1.7c0.6,0,1,0.2,1.5,0.6l0-1.8c-0.6-0.3-1.2-0.4-1.9-0.4c-2,0-3,1.5-3,3.4
		C100.2,73.3,103.9,73.8,103.9,76.5 M93.1,96.7c0-0.7-0.1-3.1,1.1-3.1c1.1,0,1,2.4,1,3.1c0,0.7,0.1,3.1-1,3.1
		C93,99.8,93.1,97.4,93.1,96.7 M91.4,96.6c0,1.5,0,4.7,2.1,4.7c0.9,0,1.3-0.5,1.7-1.3h0v1.2h1.7V86.5h-1.7v6.8h0
		c-0.3-0.7-0.7-1.1-1.6-1.1C91.5,92.1,91.4,95.1,91.4,96.6 M86.4,92.2h-1.7v9h1.7v-5.6c0-0.8-0.1-2,1-2c0.9,0,1,0.8,1,1.4v6.2h1.7
		V95c0-1.4-0.1-2.9-1.8-2.9c-0.4,0-0.8,0.1-1.1,0.3c-0.3,0.2-0.5,0.5-0.7,0.9h0V92.2z M83.8,79.9v-7.6h1.4v-1.3h-1.4v-2.7
		c0-0.6-0.1-1.4,0.8-1.4c0.3,0,0.5,0.1,0.7,0.2v-1.7c-0.4-0.2-0.7-0.2-1.1-0.2c-1.9,0-2,1.5-2,3v2.9h-0.8v1.3h0.8v7.6H83.8z
		 M79.5,92.2h-1.7v5.7c0,2,0.3,3.4,2.8,3.4c2,0,2.6-1.2,2.6-3v-6h-1.7v5.7c0,0.8,0.1,1.9-1,1.9c-1.1,0-1-1.2-1-2V92.2z M72.8,95.9
		h-3.2v1.3h3.2V95.9z M27.4,92.2h-1.7v9h1.7V92.2z M5.1,87.8H0.3v13.4h4.8v-1.5h-3v-4.5h2.7v-1.5H2.1v-4.2h3V87.8z M6.7,73.1v-0.2
		H3.5v1.5H5v0.7c0,3.2-0.8,3.3-1.5,3.3c-0.8,0-1.6-0.5-1.6-5.2C1.9,70,2,68,3.4,68c1.1,0,1.3,0.9,1.5,1.8l1.7-0.7
		c-0.5-1.8-1.4-2.7-3.3-2.7c-3.1,0-3.4,3.2-3.4,6.9c0,3.8,0.4,6.8,3.5,6.8C7.1,80.1,6.7,75.6,6.7,73.1 M9.9,101.2h1.7V95
		c0-1.4-0.1-2.9-1.8-2.9c-0.4,0-0.8,0.1-1.1,0.3c-0.3,0.2-0.5,0.5-0.7,0.9h0v-1H6.2v9h1.7v-5.6c0-0.8-0.1-2,1-2c0.9,0,1,0.8,1,1.4
		V101.2z M13.6,79.9h1.7V65.2h-1.7V79.9z M15.1,93.5H16v-1.3h-0.9v-2.5h-1.7v2.5h-0.9v1.3h0.9v7.6h1.7V93.5z M22.3,98.5l-1-6.2h-1.2
		l-0.7,3.6L19,98.7h0v-0.2l-1-6.2h-1.8l2.2,9h1.2l0.7-3.4l0.4-3.2h0l0.2,2l0.9,4.6h1.1l2.1-9h-1.6l-0.6,3.1l-0.5,3.3h0V98.5z
		 M24.5,68.2c0-0.5-0.4-1-1-1c-0.6,0-1,0.5-1,1c0,0.6,0.5,1,1,1C24,69.2,24.5,68.7,24.5,68.2 M27.3,68.2c0-0.5-0.4-1-1-1
		c-0.6,0-1,0.5-1,1c0,0.6,0.5,1,1,1C26.9,69.2,27.3,68.7,27.3,68.2 M27.6,77v-6h-1.7v5.7c0,0.8,0.1,1.9-1,1.9c-1.1,0-1-1.2-1-2v-5.6
		h-1.7v5.7c0,2,0.3,3.4,2.8,3.4C27,80,27.6,78.8,27.6,77 M27.7,89.5c0-0.6-0.5-1.1-1.1-1.1c-0.6,0-1.1,0.5-1.1,1.1
		c0,0.6,0.5,1.1,1.1,1.1C27.2,90.6,27.7,90.1,27.7,89.5 M31.4,101.3c0.5,0,0.9-0.1,1.3-0.4v-1.5c-0.3,0.2-0.5,0.3-0.9,0.3
		c-1.4,0-1.4-2.2-1.4-3.1c0-1,0-3,1.5-3c0.4,0,0.6,0.2,0.8,0.4h0v-1.7c-0.4-0.2-0.8-0.3-1.3-0.3c-2.4,0-2.7,2.9-2.7,4.7
		C28.7,98.6,29,101.3,31.4,101.3 M36.9,80c0.5,0,0.9-0.1,1.3-0.4v-1.5c-0.3,0.2-0.5,0.3-0.9,0.3c-1.4,0-1.4-2.2-1.4-3.1
		c0-1,0-3,1.5-3c0.4,0,0.6,0.2,0.8,0.4h0v-1.7c-0.4-0.2-0.8-0.3-1.3-0.3c-2.4,0-2.7,2.9-2.7,4.7C34.3,77.3,34.5,80,36.9,80
		 M39.9,101.2l-2.6-5l2.3-4h-1.9l-2.1,4h0v-9.7H34v14.7h1.7v-4.8h0l2.3,4.8H39.9z M41,101.2h1.7V86.5H41V101.2z M45.9,92.2h-1.7v5.7
		c0,2,0.3,3.4,2.8,3.4c2,0,2.6-1.2,2.6-3v-6h-1.7v5.7c0,0.8,0.1,1.9-1,1.9c-1.1,0-1-1.2-1-2V92.2z M50.8,79.9l-2.6-5l2.3-4h-1.9
		l-2.1,4h0v-9.7h-1.7v14.7h1.7v-4.8h0l2.3,4.8H50.8z M54.8,101.2h1.7V95c0-1.4-0.1-2.9-1.8-2.9c-0.4,0-0.8,0.1-1.1,0.3
		c-0.3,0.2-0.5,0.5-0.7,0.9h0v-1h-1.7v9h1.7v-5.6c0-0.8-0.1-2,1-2c0.9,0,1,0.8,1,1.4V101.2z M60.9,75.4c0,0.7,0.1,3.1-1,3.1
		c-1.2,0-1.1-2.4-1.1-3.1c0-0.7-0.1-3.1,1.1-3.1C60.9,72.3,60.9,74.7,60.9,75.4 M60.8,79.9h1.7v-9h-1.7v1h0
		c-0.3-0.7-0.8-1.1-1.6-1.1c-2.1,0-2.2,3-2.2,4.5c0,1.5,0,4.7,2.1,4.7c1,0,1.3-0.5,1.7-1.3h0V79.9z M60.6,99.8
		c-1.2,0-1.1-2.5-1.1-3.2c0-0.6-0.1-3.1,1-3.1c1.1,0,1.1,2.4,1.1,3.2S61.8,99.8,60.6,99.8 M63.3,101.3v-9h-1.7v1l0,0
		c-0.4-0.7-0.7-1.2-1.6-1.2c-2.2,0-2.1,3.2-2.1,4.7c0,1.5,0.1,4.6,2.2,4.6c0.8,0,1.4-0.5,1.6-1.2h0v1.5c0,0.8,0.1,1.9-1,1.9
		c-0.8,0-1.1-0.7-1.1-1.3h-1.6v0.2c0,1.7,1,2.6,2.6,2.6C62.4,105,63.3,104.5,63.3,101.3 M65.9,94.5c0-0.6,0.5-1,1.1-1
		c0.4,0,0.9,0.2,1.2,0.5v-1.6c-0.5-0.3-0.9-0.4-1.5-0.4c-1.4,0-2.4,1-2.4,2.4c0,2.5,2.8,2.6,2.8,4.2c0,0.7-0.4,1.1-1.1,1.1
		c-0.6,0-1-0.2-1.4-0.6v1.6c0.5,0.3,0.9,0.4,1.5,0.4c1.6,0,2.6-1.1,2.6-2.7C68.7,96.1,65.9,96,65.9,94.5 M71.1,70.9h-1.7v5.7
		c0,2,0.3,3.4,2.8,3.4c2,0,2.6-1.2,2.6-3v-6h-1.7v5.7c0,0.8,0.1,1.9-1,1.9c-1.1,0-1-1.2-1-2V70.9z M95.4,38.6h7.5l-1,5.8
		c-1.6,9.8-5.9,10.2-10.3,10.2c-5.5,0-7.7-2-7.7-7.7c0-8,2.2-18.6,4.2-26.4c1.8-6.9,5.1-17.9,13.7-17.9c7.7,0,10.6,7.2,11.4,13.8
		l3,0.3l2.2-15.4h-1.5l-4.1,3.2c-3.4-2.7-7.3-4.4-11.6-4.4C93.7,0.2,87,4.9,81.8,10c-6.9,6.7-12,16-12,26c0,14,9.6,21.1,22.6,21.1
		c9.4,0,21.6-8.1,22.3-10.8l2-7.6h6.2l0.6-2.4H96L95.4,38.6z M160.8,16.3l2.1-14.9h-2.1l-3.4,2.8c-4-2.6-7.1-4-11.9-4
		c-10.3,0-16.3,8.5-16.3,18.2c0,5.9,1.4,8.7,13.4,15.5c5.1,2.8,10.3,4.8,10.3,10.5c0,6.1-4.4,10.2-12.1,10.2
		c-9,0-13.3-6.7-13.8-15.1h-2.9l-2.6,16.4h2.1l4.6-3.3c3.7,3.3,8.3,4.6,13.1,4.6c10.3,0,19.2-7.7,19.2-20.4c0-9.4-6-13.4-12-16.3
		c-6-2.9-12.1-5-12.1-10.5c0-4.9,5.2-7.2,9.4-7.2c5.5,0,10.2,3.3,11.3,9c0.3,1.5,0.5,3,0.6,4.7H160.8z M209.4,16.7l2.2-15.3h-42
		L169,3.9h6.4l-10.2,49.5h-5.9l-0.5,2.4h44.9l4-18.2H205c-5,10.8-10.2,15.7-22.2,15.7h-3.9l5-24.8h1.8c6.1,0,5.9,5.5,5.9,10.9h3
		l4.7-22.7h-2.9c-2.9,8-7.5,9.4-9.4,9.4h-2.4L189,3.9h4.3c8.3,0,12.9,1.1,13.1,12.9H209.4z M252.8,1.4h-2.1l-3.4,2.8
		c-4-2.6-7.1-4-11.9-4c-10.3,0-16.3,8.5-16.3,18.2c0,5.9,1.4,8.7,13.4,15.5c5.1,2.8,10.3,4.8,10.3,10.5c0,6.1-4.4,10.2-12.1,10.2
		c-9,0-13.3-6.7-13.8-15.1h-2.8l-2.6,16.4h2.1l4.6-3.3c3.7,3.3,8.3,4.6,13.1,4.6c10.3,0,19.2-7.7,19.2-20.4c0-9.4-6-13.4-12.1-16.3
		c-6-2.9-12-5-12-10.5c0-4.9,5.2-7.2,9.4-7.2c5.5,0,10.2,3.3,11.3,9c0.3,1.5,0.5,3,0.6,4.7h3.1L252.8,1.4z"/>
</g>
</svg>
